G75*
%MOIN*%
%OFA0B0*%
%FSLAX25Y25*%
%IPPOS*%
%LPD*%
%AMOC8*
5,1,8,0,0,1.08239X$1,22.5*
%
%ADD10C,0.00039*%
%ADD11C,0.00000*%
D10*
X0001591Y0355823D02*
X1576394Y0355823D01*
X1576394Y0434563D01*
X0001591Y0434563D01*
X0001591Y0355823D01*
D11*
X0017142Y0395193D02*
X0017144Y0395321D01*
X0017150Y0395449D01*
X0017160Y0395576D01*
X0017174Y0395704D01*
X0017191Y0395830D01*
X0017213Y0395956D01*
X0017239Y0396082D01*
X0017268Y0396206D01*
X0017301Y0396330D01*
X0017338Y0396452D01*
X0017379Y0396573D01*
X0017424Y0396693D01*
X0017472Y0396812D01*
X0017524Y0396929D01*
X0017580Y0397044D01*
X0017639Y0397158D01*
X0017701Y0397269D01*
X0017767Y0397379D01*
X0017836Y0397486D01*
X0017909Y0397592D01*
X0017985Y0397695D01*
X0018064Y0397795D01*
X0018146Y0397894D01*
X0018231Y0397989D01*
X0018319Y0398082D01*
X0018410Y0398172D01*
X0018503Y0398259D01*
X0018600Y0398344D01*
X0018698Y0398425D01*
X0018800Y0398503D01*
X0018903Y0398578D01*
X0019009Y0398650D01*
X0019117Y0398719D01*
X0019227Y0398784D01*
X0019340Y0398845D01*
X0019454Y0398904D01*
X0019569Y0398958D01*
X0019687Y0399009D01*
X0019805Y0399057D01*
X0019926Y0399100D01*
X0020047Y0399140D01*
X0020170Y0399176D01*
X0020294Y0399209D01*
X0020419Y0399237D01*
X0020544Y0399262D01*
X0020670Y0399282D01*
X0020797Y0399299D01*
X0020925Y0399312D01*
X0021052Y0399321D01*
X0021180Y0399326D01*
X0021308Y0399327D01*
X0021436Y0399324D01*
X0021564Y0399317D01*
X0021691Y0399306D01*
X0021818Y0399291D01*
X0021945Y0399273D01*
X0022071Y0399250D01*
X0022196Y0399223D01*
X0022320Y0399193D01*
X0022443Y0399159D01*
X0022566Y0399121D01*
X0022687Y0399079D01*
X0022806Y0399033D01*
X0022924Y0398984D01*
X0023041Y0398931D01*
X0023156Y0398875D01*
X0023269Y0398815D01*
X0023380Y0398752D01*
X0023489Y0398685D01*
X0023596Y0398615D01*
X0023701Y0398541D01*
X0023803Y0398465D01*
X0023903Y0398385D01*
X0024001Y0398302D01*
X0024096Y0398216D01*
X0024188Y0398127D01*
X0024277Y0398036D01*
X0024364Y0397942D01*
X0024447Y0397845D01*
X0024528Y0397745D01*
X0024605Y0397644D01*
X0024680Y0397539D01*
X0024751Y0397433D01*
X0024818Y0397324D01*
X0024883Y0397214D01*
X0024943Y0397101D01*
X0025001Y0396987D01*
X0025054Y0396871D01*
X0025104Y0396753D01*
X0025151Y0396634D01*
X0025194Y0396513D01*
X0025233Y0396391D01*
X0025268Y0396268D01*
X0025299Y0396144D01*
X0025327Y0396019D01*
X0025350Y0395893D01*
X0025370Y0395767D01*
X0025386Y0395640D01*
X0025398Y0395513D01*
X0025406Y0395385D01*
X0025410Y0395257D01*
X0025410Y0395129D01*
X0025406Y0395001D01*
X0025398Y0394873D01*
X0025386Y0394746D01*
X0025370Y0394619D01*
X0025350Y0394493D01*
X0025327Y0394367D01*
X0025299Y0394242D01*
X0025268Y0394118D01*
X0025233Y0393995D01*
X0025194Y0393873D01*
X0025151Y0393752D01*
X0025104Y0393633D01*
X0025054Y0393515D01*
X0025001Y0393399D01*
X0024943Y0393285D01*
X0024883Y0393172D01*
X0024818Y0393062D01*
X0024751Y0392953D01*
X0024680Y0392847D01*
X0024605Y0392742D01*
X0024528Y0392641D01*
X0024447Y0392541D01*
X0024364Y0392444D01*
X0024277Y0392350D01*
X0024188Y0392259D01*
X0024096Y0392170D01*
X0024001Y0392084D01*
X0023903Y0392001D01*
X0023803Y0391921D01*
X0023701Y0391845D01*
X0023596Y0391771D01*
X0023489Y0391701D01*
X0023380Y0391634D01*
X0023269Y0391571D01*
X0023156Y0391511D01*
X0023041Y0391455D01*
X0022924Y0391402D01*
X0022806Y0391353D01*
X0022687Y0391307D01*
X0022566Y0391265D01*
X0022443Y0391227D01*
X0022320Y0391193D01*
X0022196Y0391163D01*
X0022071Y0391136D01*
X0021945Y0391113D01*
X0021818Y0391095D01*
X0021691Y0391080D01*
X0021564Y0391069D01*
X0021436Y0391062D01*
X0021308Y0391059D01*
X0021180Y0391060D01*
X0021052Y0391065D01*
X0020925Y0391074D01*
X0020797Y0391087D01*
X0020670Y0391104D01*
X0020544Y0391124D01*
X0020419Y0391149D01*
X0020294Y0391177D01*
X0020170Y0391210D01*
X0020047Y0391246D01*
X0019926Y0391286D01*
X0019805Y0391329D01*
X0019687Y0391377D01*
X0019569Y0391428D01*
X0019454Y0391482D01*
X0019340Y0391541D01*
X0019227Y0391602D01*
X0019117Y0391667D01*
X0019009Y0391736D01*
X0018903Y0391808D01*
X0018800Y0391883D01*
X0018698Y0391961D01*
X0018600Y0392042D01*
X0018503Y0392127D01*
X0018410Y0392214D01*
X0018319Y0392304D01*
X0018231Y0392397D01*
X0018146Y0392492D01*
X0018064Y0392591D01*
X0017985Y0392691D01*
X0017909Y0392794D01*
X0017836Y0392900D01*
X0017767Y0393007D01*
X0017701Y0393117D01*
X0017639Y0393228D01*
X0017580Y0393342D01*
X0017524Y0393457D01*
X0017472Y0393574D01*
X0017424Y0393693D01*
X0017379Y0393813D01*
X0017338Y0393934D01*
X0017301Y0394056D01*
X0017268Y0394180D01*
X0017239Y0394304D01*
X0017213Y0394430D01*
X0017191Y0394556D01*
X0017174Y0394682D01*
X0017160Y0394810D01*
X0017150Y0394937D01*
X0017144Y0395065D01*
X0017142Y0395193D01*
M02*
