G75*
%MOIN*%
%OFA0B0*%
%FSLAX25Y25*%
%IPPOS*%
%LPD*%
%AMOC8*
5,1,8,0,0,1.08239X$1,22.5*
%
%ADD10C,0.00039*%
%ADD11R,0.02562X0.03743*%
%ADD12R,0.04924X0.02365*%
%ADD13R,0.03743X0.02562*%
%ADD14C,0.00000*%
%ADD15C,0.08468*%
%ADD16R,0.04100X0.01400*%
%ADD17C,0.04531*%
%ADD18R,0.06499X0.06499*%
D10*
X0001591Y0355823D02*
X1576394Y0355823D01*
X1576394Y0434563D01*
X0001591Y0434563D01*
X0001591Y0355823D01*
D11*
X0884563Y0395193D03*
X0890272Y0395193D03*
X0945882Y0428244D03*
X0951591Y0428244D03*
X0955921Y0428244D03*
X0961630Y0428244D03*
X1003165Y0404720D03*
X1008874Y0404720D03*
X1081413Y0395193D03*
X1087122Y0395193D03*
X1278264Y0395193D03*
X1283972Y0395193D03*
X1475114Y0395193D03*
X1480823Y0395193D03*
D12*
X1011138Y0392122D03*
X1011138Y0399602D03*
X1000902Y0399602D03*
X1000902Y0395862D03*
X1000902Y0392122D03*
X1000902Y0410035D03*
X1000902Y0413776D03*
X1000902Y0417516D03*
X1011138Y0417516D03*
X1011138Y0410035D03*
D13*
X1017240Y0411807D03*
X1017240Y0417516D03*
X0710252Y0394110D03*
X0710252Y0388402D03*
X0513402Y0388402D03*
X0513402Y0394110D03*
X0316551Y0394110D03*
X0316551Y0388402D03*
X0119701Y0388402D03*
X0119701Y0394110D03*
D14*
X0017142Y0395193D02*
X0017144Y0395321D01*
X0017150Y0395449D01*
X0017160Y0395576D01*
X0017174Y0395704D01*
X0017191Y0395830D01*
X0017213Y0395956D01*
X0017239Y0396082D01*
X0017268Y0396206D01*
X0017301Y0396330D01*
X0017338Y0396452D01*
X0017379Y0396573D01*
X0017424Y0396693D01*
X0017472Y0396812D01*
X0017524Y0396929D01*
X0017580Y0397044D01*
X0017639Y0397158D01*
X0017701Y0397269D01*
X0017767Y0397379D01*
X0017836Y0397486D01*
X0017909Y0397592D01*
X0017985Y0397695D01*
X0018064Y0397795D01*
X0018146Y0397894D01*
X0018231Y0397989D01*
X0018319Y0398082D01*
X0018410Y0398172D01*
X0018503Y0398259D01*
X0018600Y0398344D01*
X0018698Y0398425D01*
X0018800Y0398503D01*
X0018903Y0398578D01*
X0019009Y0398650D01*
X0019117Y0398719D01*
X0019227Y0398784D01*
X0019340Y0398845D01*
X0019454Y0398904D01*
X0019569Y0398958D01*
X0019687Y0399009D01*
X0019805Y0399057D01*
X0019926Y0399100D01*
X0020047Y0399140D01*
X0020170Y0399176D01*
X0020294Y0399209D01*
X0020419Y0399237D01*
X0020544Y0399262D01*
X0020670Y0399282D01*
X0020797Y0399299D01*
X0020925Y0399312D01*
X0021052Y0399321D01*
X0021180Y0399326D01*
X0021308Y0399327D01*
X0021436Y0399324D01*
X0021564Y0399317D01*
X0021691Y0399306D01*
X0021818Y0399291D01*
X0021945Y0399273D01*
X0022071Y0399250D01*
X0022196Y0399223D01*
X0022320Y0399193D01*
X0022443Y0399159D01*
X0022566Y0399121D01*
X0022687Y0399079D01*
X0022806Y0399033D01*
X0022924Y0398984D01*
X0023041Y0398931D01*
X0023156Y0398875D01*
X0023269Y0398815D01*
X0023380Y0398752D01*
X0023489Y0398685D01*
X0023596Y0398615D01*
X0023701Y0398541D01*
X0023803Y0398465D01*
X0023903Y0398385D01*
X0024001Y0398302D01*
X0024096Y0398216D01*
X0024188Y0398127D01*
X0024277Y0398036D01*
X0024364Y0397942D01*
X0024447Y0397845D01*
X0024528Y0397745D01*
X0024605Y0397644D01*
X0024680Y0397539D01*
X0024751Y0397433D01*
X0024818Y0397324D01*
X0024883Y0397214D01*
X0024943Y0397101D01*
X0025001Y0396987D01*
X0025054Y0396871D01*
X0025104Y0396753D01*
X0025151Y0396634D01*
X0025194Y0396513D01*
X0025233Y0396391D01*
X0025268Y0396268D01*
X0025299Y0396144D01*
X0025327Y0396019D01*
X0025350Y0395893D01*
X0025370Y0395767D01*
X0025386Y0395640D01*
X0025398Y0395513D01*
X0025406Y0395385D01*
X0025410Y0395257D01*
X0025410Y0395129D01*
X0025406Y0395001D01*
X0025398Y0394873D01*
X0025386Y0394746D01*
X0025370Y0394619D01*
X0025350Y0394493D01*
X0025327Y0394367D01*
X0025299Y0394242D01*
X0025268Y0394118D01*
X0025233Y0393995D01*
X0025194Y0393873D01*
X0025151Y0393752D01*
X0025104Y0393633D01*
X0025054Y0393515D01*
X0025001Y0393399D01*
X0024943Y0393285D01*
X0024883Y0393172D01*
X0024818Y0393062D01*
X0024751Y0392953D01*
X0024680Y0392847D01*
X0024605Y0392742D01*
X0024528Y0392641D01*
X0024447Y0392541D01*
X0024364Y0392444D01*
X0024277Y0392350D01*
X0024188Y0392259D01*
X0024096Y0392170D01*
X0024001Y0392084D01*
X0023903Y0392001D01*
X0023803Y0391921D01*
X0023701Y0391845D01*
X0023596Y0391771D01*
X0023489Y0391701D01*
X0023380Y0391634D01*
X0023269Y0391571D01*
X0023156Y0391511D01*
X0023041Y0391455D01*
X0022924Y0391402D01*
X0022806Y0391353D01*
X0022687Y0391307D01*
X0022566Y0391265D01*
X0022443Y0391227D01*
X0022320Y0391193D01*
X0022196Y0391163D01*
X0022071Y0391136D01*
X0021945Y0391113D01*
X0021818Y0391095D01*
X0021691Y0391080D01*
X0021564Y0391069D01*
X0021436Y0391062D01*
X0021308Y0391059D01*
X0021180Y0391060D01*
X0021052Y0391065D01*
X0020925Y0391074D01*
X0020797Y0391087D01*
X0020670Y0391104D01*
X0020544Y0391124D01*
X0020419Y0391149D01*
X0020294Y0391177D01*
X0020170Y0391210D01*
X0020047Y0391246D01*
X0019926Y0391286D01*
X0019805Y0391329D01*
X0019687Y0391377D01*
X0019569Y0391428D01*
X0019454Y0391482D01*
X0019340Y0391541D01*
X0019227Y0391602D01*
X0019117Y0391667D01*
X0019009Y0391736D01*
X0018903Y0391808D01*
X0018800Y0391883D01*
X0018698Y0391961D01*
X0018600Y0392042D01*
X0018503Y0392127D01*
X0018410Y0392214D01*
X0018319Y0392304D01*
X0018231Y0392397D01*
X0018146Y0392492D01*
X0018064Y0392591D01*
X0017985Y0392691D01*
X0017909Y0392794D01*
X0017836Y0392900D01*
X0017767Y0393007D01*
X0017701Y0393117D01*
X0017639Y0393228D01*
X0017580Y0393342D01*
X0017524Y0393457D01*
X0017472Y0393574D01*
X0017424Y0393693D01*
X0017379Y0393813D01*
X0017338Y0393934D01*
X0017301Y0394056D01*
X0017268Y0394180D01*
X0017239Y0394304D01*
X0017213Y0394430D01*
X0017191Y0394556D01*
X0017174Y0394682D01*
X0017160Y0394810D01*
X0017150Y0394937D01*
X0017144Y0395065D01*
X0017142Y0395193D01*
D15*
X0021276Y0395193D03*
D16*
X0777505Y0393913D03*
X0777505Y0391354D03*
X0777505Y0388795D03*
X0777505Y0386236D03*
X0777505Y0383677D03*
X0800480Y0383677D03*
X0800480Y0386236D03*
X0800480Y0388795D03*
X0800480Y0391354D03*
X0800480Y0393913D03*
X0800480Y0396472D03*
X0800480Y0399031D03*
X0800480Y0401591D03*
X0800480Y0404150D03*
X0800480Y0406709D03*
X0777505Y0406709D03*
X0777505Y0404150D03*
X0777505Y0401591D03*
X0777505Y0399031D03*
X0777505Y0396472D03*
D17*
X0701788Y0401886D02*
X0698244Y0401886D01*
X0701788Y0401886D02*
X0701788Y0401886D01*
X0698244Y0401886D01*
X0698244Y0401886D01*
X0698244Y0388500D02*
X0701788Y0388500D01*
X0701788Y0388500D01*
X0698244Y0388500D01*
X0698244Y0388500D01*
X0682890Y0388500D02*
X0679346Y0388500D01*
X0682890Y0388500D02*
X0682890Y0388500D01*
X0679346Y0388500D01*
X0679346Y0388500D01*
X0679346Y0401886D02*
X0682890Y0401886D01*
X0682890Y0401886D01*
X0679346Y0401886D01*
X0679346Y0401886D01*
X0504937Y0401886D02*
X0501393Y0401886D01*
X0504937Y0401886D02*
X0504937Y0401886D01*
X0501393Y0401886D01*
X0501393Y0401886D01*
X0501393Y0388500D02*
X0504937Y0388500D01*
X0504937Y0388500D01*
X0501393Y0388500D01*
X0501393Y0388500D01*
X0486040Y0388500D02*
X0482496Y0388500D01*
X0486040Y0388500D02*
X0486040Y0388500D01*
X0482496Y0388500D01*
X0482496Y0388500D01*
X0482496Y0401886D02*
X0486040Y0401886D01*
X0486040Y0401886D01*
X0482496Y0401886D01*
X0482496Y0401886D01*
X0308087Y0401886D02*
X0304543Y0401886D01*
X0308087Y0401886D02*
X0308087Y0401886D01*
X0304543Y0401886D01*
X0304543Y0401886D01*
X0304543Y0388500D02*
X0308087Y0388500D01*
X0308087Y0388500D01*
X0304543Y0388500D01*
X0304543Y0388500D01*
X0289189Y0388500D02*
X0285645Y0388500D01*
X0289189Y0388500D02*
X0289189Y0388500D01*
X0285645Y0388500D01*
X0285645Y0388500D01*
X0285645Y0401886D02*
X0289189Y0401886D01*
X0289189Y0401886D01*
X0285645Y0401886D01*
X0285645Y0401886D01*
X0111237Y0401886D02*
X0107693Y0401886D01*
X0111237Y0401886D02*
X0111237Y0401886D01*
X0107693Y0401886D01*
X0107693Y0401886D01*
X0107693Y0388500D02*
X0111237Y0388500D01*
X0111237Y0388500D01*
X0107693Y0388500D01*
X0107693Y0388500D01*
X0092339Y0388500D02*
X0088795Y0388500D01*
X0092339Y0388500D02*
X0092339Y0388500D01*
X0088795Y0388500D01*
X0088795Y0388500D01*
X0088795Y0401886D02*
X0092339Y0401886D01*
X0092339Y0401886D01*
X0088795Y0401886D01*
X0088795Y0401886D01*
X0876197Y0401886D02*
X0879741Y0401886D01*
X0876197Y0401886D02*
X0876197Y0401886D01*
X0879741Y0401886D01*
X0879741Y0401886D01*
X0879741Y0388500D02*
X0876197Y0388500D01*
X0876197Y0388500D01*
X0879741Y0388500D01*
X0879741Y0388500D01*
X0895094Y0388500D02*
X0898638Y0388500D01*
X0895094Y0388500D02*
X0895094Y0388500D01*
X0898638Y0388500D01*
X0898638Y0388500D01*
X0898638Y0401886D02*
X0895094Y0401886D01*
X0895094Y0401886D01*
X0898638Y0401886D01*
X0898638Y0401886D01*
X1073047Y0401886D02*
X1076591Y0401886D01*
X1073047Y0401886D02*
X1073047Y0401886D01*
X1076591Y0401886D01*
X1076591Y0401886D01*
X1076591Y0388500D02*
X1073047Y0388500D01*
X1073047Y0388500D01*
X1076591Y0388500D01*
X1076591Y0388500D01*
X1091945Y0388500D02*
X1095489Y0388500D01*
X1091945Y0388500D02*
X1091945Y0388500D01*
X1095489Y0388500D01*
X1095489Y0388500D01*
X1095489Y0401886D02*
X1091945Y0401886D01*
X1091945Y0401886D01*
X1095489Y0401886D01*
X1095489Y0401886D01*
X1269897Y0401886D02*
X1273441Y0401886D01*
X1269897Y0401886D02*
X1269897Y0401886D01*
X1273441Y0401886D01*
X1273441Y0401886D01*
X1273441Y0388500D02*
X1269897Y0388500D01*
X1269897Y0388500D01*
X1273441Y0388500D01*
X1273441Y0388500D01*
X1288795Y0388500D02*
X1292339Y0388500D01*
X1288795Y0388500D02*
X1288795Y0388500D01*
X1292339Y0388500D01*
X1292339Y0388500D01*
X1292339Y0401886D02*
X1288795Y0401886D01*
X1288795Y0401886D01*
X1292339Y0401886D01*
X1292339Y0401886D01*
X1466748Y0401886D02*
X1470292Y0401886D01*
X1466748Y0401886D02*
X1466748Y0401886D01*
X1470292Y0401886D01*
X1470292Y0401886D01*
X1470292Y0388500D02*
X1466748Y0388500D01*
X1466748Y0388500D01*
X1470292Y0388500D01*
X1470292Y0388500D01*
X1485645Y0388500D02*
X1489189Y0388500D01*
X1485645Y0388500D02*
X1485645Y0388500D01*
X1489189Y0388500D01*
X1489189Y0388500D01*
X1489189Y0401886D02*
X1485645Y0401886D01*
X1485645Y0401886D01*
X1489189Y0401886D01*
X1489189Y0401886D01*
D18*
X0078646Y0425193D03*
X0042646Y0425193D03*
X0042646Y0365193D03*
X0078646Y0365193D03*
M02*
