G75*
%MOIN*%
%OFA0B0*%
%FSLAX25Y25*%
%IPPOS*%
%LPD*%
%AMOC8*
5,1,8,0,0,1.08239X$1,22.5*
%
%ADD10C,0.00039*%
%ADD11C,0.00394*%
%ADD12C,0.00600*%
%ADD13C,0.00000*%
%ADD14C,0.00591*%
%ADD15C,0.00200*%
%ADD16C,0.00800*%
%ADD17C,0.00500*%
%ADD18C,0.00400*%
%ADD19C,0.01000*%
D10*
X0001591Y0355823D02*
X1576394Y0355823D01*
X1576394Y0434563D01*
X0001591Y0434563D01*
X0001591Y0355823D01*
D11*
X0117535Y0386827D02*
X0121866Y0386827D01*
X0121866Y0395685D01*
X0117535Y0395685D01*
X0117535Y0386827D01*
X0314386Y0386827D02*
X0318717Y0386827D01*
X0318717Y0395685D01*
X0314386Y0395685D01*
X0314386Y0386827D01*
X0511236Y0386827D02*
X0515567Y0386827D01*
X0515567Y0395685D01*
X0511236Y0395685D01*
X0511236Y0386827D01*
X0708087Y0386827D02*
X0712417Y0386827D01*
X0712417Y0395685D01*
X0708087Y0395685D01*
X0708087Y0386827D01*
X0882988Y0393028D02*
X0882988Y0397358D01*
X0891846Y0397358D01*
X0891846Y0393028D01*
X0882988Y0393028D01*
X0944307Y0426079D02*
X0944307Y0430409D01*
X0947752Y0430409D01*
X0947752Y0426079D01*
X0944307Y0426079D01*
X0947752Y0426079D02*
X0953165Y0426079D01*
X0953165Y0430409D01*
X0947752Y0430409D01*
X0954346Y0430409D02*
X0954346Y0426079D01*
X0963205Y0426079D01*
X0963205Y0430409D01*
X0954346Y0430409D01*
X1001591Y0406886D02*
X1001591Y0402555D01*
X1010449Y0402555D01*
X1010449Y0406886D01*
X1001591Y0406886D01*
X1015075Y0410232D02*
X1019406Y0410232D01*
X1019406Y0419091D01*
X1015075Y0419091D01*
X1015075Y0410232D01*
X1079839Y0397358D02*
X1079839Y0393028D01*
X1088697Y0393028D01*
X1088697Y0397358D01*
X1079839Y0397358D01*
X1276689Y0397358D02*
X1276689Y0393028D01*
X1285547Y0393028D01*
X1285547Y0397358D01*
X1276689Y0397358D01*
X1473539Y0397358D02*
X1473539Y0393028D01*
X1482398Y0393028D01*
X1482398Y0397358D01*
X1473539Y0397358D01*
D12*
X1009209Y0397917D02*
X1009209Y0393807D01*
X1009209Y0390634D02*
X1009209Y0390264D01*
X1002831Y0390264D01*
X1002831Y0390634D01*
X1002831Y0393807D02*
X1002831Y0394177D01*
X1002831Y0397547D02*
X1002831Y0397917D01*
X1002831Y0401091D02*
X1002831Y0401461D01*
X1009209Y0401461D01*
X1009209Y0401091D01*
X1009209Y0408177D02*
X1009209Y0408547D01*
X1009209Y0408177D02*
X1002831Y0408177D01*
X1002831Y0408547D01*
X1002831Y0411720D02*
X1002831Y0412091D01*
X1002831Y0415461D02*
X1002831Y0415831D01*
X1002831Y0419004D02*
X1002831Y0419374D01*
X1009209Y0419374D01*
X1009209Y0419004D01*
X1009209Y0415831D02*
X1009209Y0411720D01*
X0797980Y0407652D02*
X0797980Y0382734D01*
X0780005Y0382734D01*
X0780005Y0407652D01*
X0797980Y0407652D01*
X0782392Y0404152D02*
X0782394Y0404236D01*
X0782400Y0404321D01*
X0782410Y0404404D01*
X0782424Y0404488D01*
X0782441Y0404570D01*
X0782463Y0404652D01*
X0782488Y0404732D01*
X0782517Y0404811D01*
X0782550Y0404889D01*
X0782586Y0404965D01*
X0782626Y0405040D01*
X0782670Y0405112D01*
X0782716Y0405183D01*
X0782766Y0405251D01*
X0782819Y0405316D01*
X0782875Y0405379D01*
X0782934Y0405440D01*
X0782996Y0405497D01*
X0783060Y0405552D01*
X0783127Y0405603D01*
X0783196Y0405652D01*
X0783268Y0405697D01*
X0783341Y0405738D01*
X0783416Y0405776D01*
X0783493Y0405811D01*
X0783572Y0405842D01*
X0783652Y0405869D01*
X0783733Y0405892D01*
X0783815Y0405912D01*
X0783898Y0405928D01*
X0783981Y0405940D01*
X0784066Y0405948D01*
X0784150Y0405952D01*
X0784234Y0405952D01*
X0784318Y0405948D01*
X0784403Y0405940D01*
X0784486Y0405928D01*
X0784569Y0405912D01*
X0784651Y0405892D01*
X0784732Y0405869D01*
X0784812Y0405842D01*
X0784891Y0405811D01*
X0784968Y0405776D01*
X0785043Y0405738D01*
X0785116Y0405697D01*
X0785188Y0405652D01*
X0785257Y0405603D01*
X0785324Y0405552D01*
X0785388Y0405497D01*
X0785450Y0405440D01*
X0785509Y0405379D01*
X0785565Y0405316D01*
X0785618Y0405251D01*
X0785668Y0405183D01*
X0785714Y0405112D01*
X0785758Y0405040D01*
X0785798Y0404965D01*
X0785834Y0404889D01*
X0785867Y0404811D01*
X0785896Y0404732D01*
X0785921Y0404652D01*
X0785943Y0404570D01*
X0785960Y0404488D01*
X0785974Y0404404D01*
X0785984Y0404321D01*
X0785990Y0404236D01*
X0785992Y0404152D01*
X0785990Y0404068D01*
X0785984Y0403983D01*
X0785974Y0403900D01*
X0785960Y0403816D01*
X0785943Y0403734D01*
X0785921Y0403652D01*
X0785896Y0403572D01*
X0785867Y0403493D01*
X0785834Y0403415D01*
X0785798Y0403339D01*
X0785758Y0403264D01*
X0785714Y0403192D01*
X0785668Y0403121D01*
X0785618Y0403053D01*
X0785565Y0402988D01*
X0785509Y0402925D01*
X0785450Y0402864D01*
X0785388Y0402807D01*
X0785324Y0402752D01*
X0785257Y0402701D01*
X0785188Y0402652D01*
X0785116Y0402607D01*
X0785043Y0402566D01*
X0784968Y0402528D01*
X0784891Y0402493D01*
X0784812Y0402462D01*
X0784732Y0402435D01*
X0784651Y0402412D01*
X0784569Y0402392D01*
X0784486Y0402376D01*
X0784403Y0402364D01*
X0784318Y0402356D01*
X0784234Y0402352D01*
X0784150Y0402352D01*
X0784066Y0402356D01*
X0783981Y0402364D01*
X0783898Y0402376D01*
X0783815Y0402392D01*
X0783733Y0402412D01*
X0783652Y0402435D01*
X0783572Y0402462D01*
X0783493Y0402493D01*
X0783416Y0402528D01*
X0783341Y0402566D01*
X0783268Y0402607D01*
X0783196Y0402652D01*
X0783127Y0402701D01*
X0783060Y0402752D01*
X0782996Y0402807D01*
X0782934Y0402864D01*
X0782875Y0402925D01*
X0782819Y0402988D01*
X0782766Y0403053D01*
X0782716Y0403121D01*
X0782670Y0403192D01*
X0782626Y0403264D01*
X0782586Y0403339D01*
X0782550Y0403415D01*
X0782517Y0403493D01*
X0782488Y0403572D01*
X0782463Y0403652D01*
X0782441Y0403734D01*
X0782424Y0403816D01*
X0782410Y0403900D01*
X0782400Y0403983D01*
X0782394Y0404068D01*
X0782392Y0404152D01*
D13*
X0017142Y0395193D02*
X0017144Y0395321D01*
X0017150Y0395449D01*
X0017160Y0395576D01*
X0017174Y0395704D01*
X0017191Y0395830D01*
X0017213Y0395956D01*
X0017239Y0396082D01*
X0017268Y0396206D01*
X0017301Y0396330D01*
X0017338Y0396452D01*
X0017379Y0396573D01*
X0017424Y0396693D01*
X0017472Y0396812D01*
X0017524Y0396929D01*
X0017580Y0397044D01*
X0017639Y0397158D01*
X0017701Y0397269D01*
X0017767Y0397379D01*
X0017836Y0397486D01*
X0017909Y0397592D01*
X0017985Y0397695D01*
X0018064Y0397795D01*
X0018146Y0397894D01*
X0018231Y0397989D01*
X0018319Y0398082D01*
X0018410Y0398172D01*
X0018503Y0398259D01*
X0018600Y0398344D01*
X0018698Y0398425D01*
X0018800Y0398503D01*
X0018903Y0398578D01*
X0019009Y0398650D01*
X0019117Y0398719D01*
X0019227Y0398784D01*
X0019340Y0398845D01*
X0019454Y0398904D01*
X0019569Y0398958D01*
X0019687Y0399009D01*
X0019805Y0399057D01*
X0019926Y0399100D01*
X0020047Y0399140D01*
X0020170Y0399176D01*
X0020294Y0399209D01*
X0020419Y0399237D01*
X0020544Y0399262D01*
X0020670Y0399282D01*
X0020797Y0399299D01*
X0020925Y0399312D01*
X0021052Y0399321D01*
X0021180Y0399326D01*
X0021308Y0399327D01*
X0021436Y0399324D01*
X0021564Y0399317D01*
X0021691Y0399306D01*
X0021818Y0399291D01*
X0021945Y0399273D01*
X0022071Y0399250D01*
X0022196Y0399223D01*
X0022320Y0399193D01*
X0022443Y0399159D01*
X0022566Y0399121D01*
X0022687Y0399079D01*
X0022806Y0399033D01*
X0022924Y0398984D01*
X0023041Y0398931D01*
X0023156Y0398875D01*
X0023269Y0398815D01*
X0023380Y0398752D01*
X0023489Y0398685D01*
X0023596Y0398615D01*
X0023701Y0398541D01*
X0023803Y0398465D01*
X0023903Y0398385D01*
X0024001Y0398302D01*
X0024096Y0398216D01*
X0024188Y0398127D01*
X0024277Y0398036D01*
X0024364Y0397942D01*
X0024447Y0397845D01*
X0024528Y0397745D01*
X0024605Y0397644D01*
X0024680Y0397539D01*
X0024751Y0397433D01*
X0024818Y0397324D01*
X0024883Y0397214D01*
X0024943Y0397101D01*
X0025001Y0396987D01*
X0025054Y0396871D01*
X0025104Y0396753D01*
X0025151Y0396634D01*
X0025194Y0396513D01*
X0025233Y0396391D01*
X0025268Y0396268D01*
X0025299Y0396144D01*
X0025327Y0396019D01*
X0025350Y0395893D01*
X0025370Y0395767D01*
X0025386Y0395640D01*
X0025398Y0395513D01*
X0025406Y0395385D01*
X0025410Y0395257D01*
X0025410Y0395129D01*
X0025406Y0395001D01*
X0025398Y0394873D01*
X0025386Y0394746D01*
X0025370Y0394619D01*
X0025350Y0394493D01*
X0025327Y0394367D01*
X0025299Y0394242D01*
X0025268Y0394118D01*
X0025233Y0393995D01*
X0025194Y0393873D01*
X0025151Y0393752D01*
X0025104Y0393633D01*
X0025054Y0393515D01*
X0025001Y0393399D01*
X0024943Y0393285D01*
X0024883Y0393172D01*
X0024818Y0393062D01*
X0024751Y0392953D01*
X0024680Y0392847D01*
X0024605Y0392742D01*
X0024528Y0392641D01*
X0024447Y0392541D01*
X0024364Y0392444D01*
X0024277Y0392350D01*
X0024188Y0392259D01*
X0024096Y0392170D01*
X0024001Y0392084D01*
X0023903Y0392001D01*
X0023803Y0391921D01*
X0023701Y0391845D01*
X0023596Y0391771D01*
X0023489Y0391701D01*
X0023380Y0391634D01*
X0023269Y0391571D01*
X0023156Y0391511D01*
X0023041Y0391455D01*
X0022924Y0391402D01*
X0022806Y0391353D01*
X0022687Y0391307D01*
X0022566Y0391265D01*
X0022443Y0391227D01*
X0022320Y0391193D01*
X0022196Y0391163D01*
X0022071Y0391136D01*
X0021945Y0391113D01*
X0021818Y0391095D01*
X0021691Y0391080D01*
X0021564Y0391069D01*
X0021436Y0391062D01*
X0021308Y0391059D01*
X0021180Y0391060D01*
X0021052Y0391065D01*
X0020925Y0391074D01*
X0020797Y0391087D01*
X0020670Y0391104D01*
X0020544Y0391124D01*
X0020419Y0391149D01*
X0020294Y0391177D01*
X0020170Y0391210D01*
X0020047Y0391246D01*
X0019926Y0391286D01*
X0019805Y0391329D01*
X0019687Y0391377D01*
X0019569Y0391428D01*
X0019454Y0391482D01*
X0019340Y0391541D01*
X0019227Y0391602D01*
X0019117Y0391667D01*
X0019009Y0391736D01*
X0018903Y0391808D01*
X0018800Y0391883D01*
X0018698Y0391961D01*
X0018600Y0392042D01*
X0018503Y0392127D01*
X0018410Y0392214D01*
X0018319Y0392304D01*
X0018231Y0392397D01*
X0018146Y0392492D01*
X0018064Y0392591D01*
X0017985Y0392691D01*
X0017909Y0392794D01*
X0017836Y0392900D01*
X0017767Y0393007D01*
X0017701Y0393117D01*
X0017639Y0393228D01*
X0017580Y0393342D01*
X0017524Y0393457D01*
X0017472Y0393574D01*
X0017424Y0393693D01*
X0017379Y0393813D01*
X0017338Y0393934D01*
X0017301Y0394056D01*
X0017268Y0394180D01*
X0017239Y0394304D01*
X0017213Y0394430D01*
X0017191Y0394556D01*
X0017174Y0394682D01*
X0017160Y0394810D01*
X0017150Y0394937D01*
X0017144Y0395065D01*
X0017142Y0395193D01*
D14*
X0013008Y0395193D02*
X0013010Y0395396D01*
X0013018Y0395599D01*
X0013030Y0395801D01*
X0013048Y0396003D01*
X0013070Y0396205D01*
X0013097Y0396406D01*
X0013130Y0396607D01*
X0013167Y0396806D01*
X0013209Y0397005D01*
X0013256Y0397202D01*
X0013307Y0397398D01*
X0013364Y0397593D01*
X0013425Y0397787D01*
X0013491Y0397978D01*
X0013562Y0398169D01*
X0013637Y0398357D01*
X0013717Y0398544D01*
X0013802Y0398728D01*
X0013891Y0398910D01*
X0013984Y0399091D01*
X0014082Y0399268D01*
X0014184Y0399444D01*
X0014291Y0399616D01*
X0014401Y0399786D01*
X0014516Y0399954D01*
X0014635Y0400118D01*
X0014758Y0400280D01*
X0014885Y0400438D01*
X0015015Y0400593D01*
X0015150Y0400745D01*
X0015288Y0400894D01*
X0015430Y0401039D01*
X0015575Y0401181D01*
X0015724Y0401319D01*
X0015876Y0401454D01*
X0016031Y0401584D01*
X0016189Y0401711D01*
X0016351Y0401834D01*
X0016515Y0401953D01*
X0016683Y0402068D01*
X0016853Y0402178D01*
X0017025Y0402285D01*
X0017201Y0402387D01*
X0017378Y0402485D01*
X0017559Y0402578D01*
X0017741Y0402667D01*
X0017925Y0402752D01*
X0018112Y0402832D01*
X0018300Y0402907D01*
X0018491Y0402978D01*
X0018682Y0403044D01*
X0018876Y0403105D01*
X0019071Y0403162D01*
X0019267Y0403213D01*
X0019464Y0403260D01*
X0019663Y0403302D01*
X0019862Y0403339D01*
X0020063Y0403372D01*
X0020264Y0403399D01*
X0020466Y0403421D01*
X0020668Y0403439D01*
X0020870Y0403451D01*
X0021073Y0403459D01*
X0021276Y0403461D01*
X0021479Y0403459D01*
X0021682Y0403451D01*
X0021884Y0403439D01*
X0022086Y0403421D01*
X0022288Y0403399D01*
X0022489Y0403372D01*
X0022690Y0403339D01*
X0022889Y0403302D01*
X0023088Y0403260D01*
X0023285Y0403213D01*
X0023481Y0403162D01*
X0023676Y0403105D01*
X0023870Y0403044D01*
X0024061Y0402978D01*
X0024252Y0402907D01*
X0024440Y0402832D01*
X0024627Y0402752D01*
X0024811Y0402667D01*
X0024993Y0402578D01*
X0025174Y0402485D01*
X0025351Y0402387D01*
X0025527Y0402285D01*
X0025699Y0402178D01*
X0025869Y0402068D01*
X0026037Y0401953D01*
X0026201Y0401834D01*
X0026363Y0401711D01*
X0026521Y0401584D01*
X0026676Y0401454D01*
X0026828Y0401319D01*
X0026977Y0401181D01*
X0027122Y0401039D01*
X0027264Y0400894D01*
X0027402Y0400745D01*
X0027537Y0400593D01*
X0027667Y0400438D01*
X0027794Y0400280D01*
X0027917Y0400118D01*
X0028036Y0399954D01*
X0028151Y0399786D01*
X0028261Y0399616D01*
X0028368Y0399444D01*
X0028470Y0399268D01*
X0028568Y0399091D01*
X0028661Y0398910D01*
X0028750Y0398728D01*
X0028835Y0398544D01*
X0028915Y0398357D01*
X0028990Y0398169D01*
X0029061Y0397978D01*
X0029127Y0397787D01*
X0029188Y0397593D01*
X0029245Y0397398D01*
X0029296Y0397202D01*
X0029343Y0397005D01*
X0029385Y0396806D01*
X0029422Y0396607D01*
X0029455Y0396406D01*
X0029482Y0396205D01*
X0029504Y0396003D01*
X0029522Y0395801D01*
X0029534Y0395599D01*
X0029542Y0395396D01*
X0029544Y0395193D01*
X0029542Y0394990D01*
X0029534Y0394787D01*
X0029522Y0394585D01*
X0029504Y0394383D01*
X0029482Y0394181D01*
X0029455Y0393980D01*
X0029422Y0393779D01*
X0029385Y0393580D01*
X0029343Y0393381D01*
X0029296Y0393184D01*
X0029245Y0392988D01*
X0029188Y0392793D01*
X0029127Y0392599D01*
X0029061Y0392408D01*
X0028990Y0392217D01*
X0028915Y0392029D01*
X0028835Y0391842D01*
X0028750Y0391658D01*
X0028661Y0391476D01*
X0028568Y0391295D01*
X0028470Y0391118D01*
X0028368Y0390942D01*
X0028261Y0390770D01*
X0028151Y0390600D01*
X0028036Y0390432D01*
X0027917Y0390268D01*
X0027794Y0390106D01*
X0027667Y0389948D01*
X0027537Y0389793D01*
X0027402Y0389641D01*
X0027264Y0389492D01*
X0027122Y0389347D01*
X0026977Y0389205D01*
X0026828Y0389067D01*
X0026676Y0388932D01*
X0026521Y0388802D01*
X0026363Y0388675D01*
X0026201Y0388552D01*
X0026037Y0388433D01*
X0025869Y0388318D01*
X0025699Y0388208D01*
X0025527Y0388101D01*
X0025351Y0387999D01*
X0025174Y0387901D01*
X0024993Y0387808D01*
X0024811Y0387719D01*
X0024627Y0387634D01*
X0024440Y0387554D01*
X0024252Y0387479D01*
X0024061Y0387408D01*
X0023870Y0387342D01*
X0023676Y0387281D01*
X0023481Y0387224D01*
X0023285Y0387173D01*
X0023088Y0387126D01*
X0022889Y0387084D01*
X0022690Y0387047D01*
X0022489Y0387014D01*
X0022288Y0386987D01*
X0022086Y0386965D01*
X0021884Y0386947D01*
X0021682Y0386935D01*
X0021479Y0386927D01*
X0021276Y0386925D01*
X0021073Y0386927D01*
X0020870Y0386935D01*
X0020668Y0386947D01*
X0020466Y0386965D01*
X0020264Y0386987D01*
X0020063Y0387014D01*
X0019862Y0387047D01*
X0019663Y0387084D01*
X0019464Y0387126D01*
X0019267Y0387173D01*
X0019071Y0387224D01*
X0018876Y0387281D01*
X0018682Y0387342D01*
X0018491Y0387408D01*
X0018300Y0387479D01*
X0018112Y0387554D01*
X0017925Y0387634D01*
X0017741Y0387719D01*
X0017559Y0387808D01*
X0017378Y0387901D01*
X0017201Y0387999D01*
X0017025Y0388101D01*
X0016853Y0388208D01*
X0016683Y0388318D01*
X0016515Y0388433D01*
X0016351Y0388552D01*
X0016189Y0388675D01*
X0016031Y0388802D01*
X0015876Y0388932D01*
X0015724Y0389067D01*
X0015575Y0389205D01*
X0015430Y0389347D01*
X0015288Y0389492D01*
X0015150Y0389641D01*
X0015015Y0389793D01*
X0014885Y0389948D01*
X0014758Y0390106D01*
X0014635Y0390268D01*
X0014516Y0390432D01*
X0014401Y0390600D01*
X0014291Y0390770D01*
X0014184Y0390942D01*
X0014082Y0391118D01*
X0013984Y0391295D01*
X0013891Y0391476D01*
X0013802Y0391658D01*
X0013717Y0391842D01*
X0013637Y0392029D01*
X0013562Y0392217D01*
X0013491Y0392408D01*
X0013425Y0392599D01*
X0013364Y0392793D01*
X0013307Y0392988D01*
X0013256Y0393184D01*
X0013209Y0393381D01*
X0013167Y0393580D01*
X0013130Y0393779D01*
X0013097Y0393980D01*
X0013070Y0394181D01*
X0013048Y0394383D01*
X0013030Y0394585D01*
X0013018Y0394787D01*
X0013010Y0394990D01*
X0013008Y0395193D01*
D15*
X0780905Y0383634D02*
X0797080Y0383634D01*
X0797080Y0406752D01*
X0780905Y0406752D01*
X0780905Y0383634D01*
D16*
X0700409Y0391650D02*
X0700409Y0398736D01*
X0694567Y0396693D02*
X0691067Y0396693D01*
X0691067Y0393693D01*
X0694567Y0393693D01*
X0694567Y0396693D01*
X0689567Y0395693D02*
X0689567Y0394693D01*
X0688567Y0394693D01*
X0688567Y0395693D01*
X0689567Y0395693D01*
X0692443Y0387319D02*
X0692445Y0387378D01*
X0692451Y0387436D01*
X0692461Y0387494D01*
X0692474Y0387551D01*
X0692492Y0387608D01*
X0692513Y0387663D01*
X0692538Y0387716D01*
X0692566Y0387767D01*
X0692597Y0387817D01*
X0692632Y0387864D01*
X0692670Y0387909D01*
X0692711Y0387952D01*
X0692755Y0387991D01*
X0692801Y0388027D01*
X0692849Y0388061D01*
X0692900Y0388091D01*
X0692953Y0388117D01*
X0693007Y0388140D01*
X0693062Y0388159D01*
X0693119Y0388175D01*
X0693177Y0388187D01*
X0693235Y0388195D01*
X0693294Y0388199D01*
X0693352Y0388199D01*
X0693411Y0388195D01*
X0693469Y0388187D01*
X0693527Y0388175D01*
X0693584Y0388159D01*
X0693639Y0388140D01*
X0693693Y0388117D01*
X0693746Y0388091D01*
X0693797Y0388061D01*
X0693845Y0388027D01*
X0693891Y0387991D01*
X0693935Y0387952D01*
X0693976Y0387909D01*
X0694014Y0387864D01*
X0694049Y0387817D01*
X0694080Y0387767D01*
X0694108Y0387716D01*
X0694133Y0387663D01*
X0694154Y0387608D01*
X0694172Y0387551D01*
X0694185Y0387494D01*
X0694195Y0387436D01*
X0694201Y0387378D01*
X0694203Y0387319D01*
X0694201Y0387260D01*
X0694195Y0387202D01*
X0694185Y0387144D01*
X0694172Y0387087D01*
X0694154Y0387030D01*
X0694133Y0386975D01*
X0694108Y0386922D01*
X0694080Y0386871D01*
X0694049Y0386821D01*
X0694014Y0386774D01*
X0693976Y0386729D01*
X0693935Y0386686D01*
X0693891Y0386647D01*
X0693845Y0386611D01*
X0693797Y0386577D01*
X0693746Y0386547D01*
X0693693Y0386521D01*
X0693639Y0386498D01*
X0693584Y0386479D01*
X0693527Y0386463D01*
X0693469Y0386451D01*
X0693411Y0386443D01*
X0693352Y0386439D01*
X0693294Y0386439D01*
X0693235Y0386443D01*
X0693177Y0386451D01*
X0693119Y0386463D01*
X0693062Y0386479D01*
X0693007Y0386498D01*
X0692953Y0386521D01*
X0692900Y0386547D01*
X0692849Y0386577D01*
X0692801Y0386611D01*
X0692755Y0386647D01*
X0692711Y0386686D01*
X0692670Y0386729D01*
X0692632Y0386774D01*
X0692597Y0386821D01*
X0692566Y0386871D01*
X0692538Y0386922D01*
X0692513Y0386975D01*
X0692492Y0387030D01*
X0692474Y0387087D01*
X0692461Y0387144D01*
X0692451Y0387202D01*
X0692445Y0387260D01*
X0692443Y0387319D01*
X0694504Y0385350D02*
X0686630Y0385350D01*
X0680724Y0391650D02*
X0680724Y0398736D01*
X0686630Y0405035D02*
X0694504Y0405035D01*
X0877575Y0398736D02*
X0877575Y0391650D01*
X0883417Y0393693D02*
X0886917Y0393693D01*
X0886917Y0396693D01*
X0883417Y0396693D01*
X0883417Y0393693D01*
X0888417Y0394693D02*
X0889417Y0394693D01*
X0889417Y0395693D01*
X0888417Y0395693D01*
X0888417Y0394693D01*
X0883781Y0403067D02*
X0883783Y0403126D01*
X0883789Y0403184D01*
X0883799Y0403242D01*
X0883812Y0403299D01*
X0883830Y0403356D01*
X0883851Y0403411D01*
X0883876Y0403464D01*
X0883904Y0403515D01*
X0883935Y0403565D01*
X0883970Y0403612D01*
X0884008Y0403657D01*
X0884049Y0403700D01*
X0884093Y0403739D01*
X0884139Y0403775D01*
X0884187Y0403809D01*
X0884238Y0403839D01*
X0884291Y0403865D01*
X0884345Y0403888D01*
X0884400Y0403907D01*
X0884457Y0403923D01*
X0884515Y0403935D01*
X0884573Y0403943D01*
X0884632Y0403947D01*
X0884690Y0403947D01*
X0884749Y0403943D01*
X0884807Y0403935D01*
X0884865Y0403923D01*
X0884922Y0403907D01*
X0884977Y0403888D01*
X0885031Y0403865D01*
X0885084Y0403839D01*
X0885135Y0403809D01*
X0885183Y0403775D01*
X0885229Y0403739D01*
X0885273Y0403700D01*
X0885314Y0403657D01*
X0885352Y0403612D01*
X0885387Y0403565D01*
X0885418Y0403515D01*
X0885446Y0403464D01*
X0885471Y0403411D01*
X0885492Y0403356D01*
X0885510Y0403299D01*
X0885523Y0403242D01*
X0885533Y0403184D01*
X0885539Y0403126D01*
X0885541Y0403067D01*
X0885539Y0403008D01*
X0885533Y0402950D01*
X0885523Y0402892D01*
X0885510Y0402835D01*
X0885492Y0402778D01*
X0885471Y0402723D01*
X0885446Y0402670D01*
X0885418Y0402619D01*
X0885387Y0402569D01*
X0885352Y0402522D01*
X0885314Y0402477D01*
X0885273Y0402434D01*
X0885229Y0402395D01*
X0885183Y0402359D01*
X0885135Y0402325D01*
X0885084Y0402295D01*
X0885031Y0402269D01*
X0884977Y0402246D01*
X0884922Y0402227D01*
X0884865Y0402211D01*
X0884807Y0402199D01*
X0884749Y0402191D01*
X0884690Y0402187D01*
X0884632Y0402187D01*
X0884573Y0402191D01*
X0884515Y0402199D01*
X0884457Y0402211D01*
X0884400Y0402227D01*
X0884345Y0402246D01*
X0884291Y0402269D01*
X0884238Y0402295D01*
X0884187Y0402325D01*
X0884139Y0402359D01*
X0884093Y0402395D01*
X0884049Y0402434D01*
X0884008Y0402477D01*
X0883970Y0402522D01*
X0883935Y0402569D01*
X0883904Y0402619D01*
X0883876Y0402670D01*
X0883851Y0402723D01*
X0883830Y0402778D01*
X0883812Y0402835D01*
X0883799Y0402892D01*
X0883789Y0402950D01*
X0883783Y0403008D01*
X0883781Y0403067D01*
X0883480Y0405035D02*
X0891354Y0405035D01*
X0897260Y0398736D02*
X0897260Y0391650D01*
X0891354Y0385350D02*
X0883480Y0385350D01*
X1074425Y0391650D02*
X1074425Y0398736D01*
X1080268Y0396693D02*
X1083768Y0396693D01*
X1083768Y0393693D01*
X1080268Y0393693D01*
X1080268Y0396693D01*
X1085268Y0395693D02*
X1086268Y0395693D01*
X1086268Y0394693D01*
X1085268Y0394693D01*
X1085268Y0395693D01*
X1080632Y0403067D02*
X1080634Y0403126D01*
X1080640Y0403184D01*
X1080650Y0403242D01*
X1080663Y0403299D01*
X1080681Y0403356D01*
X1080702Y0403411D01*
X1080727Y0403464D01*
X1080755Y0403515D01*
X1080786Y0403565D01*
X1080821Y0403612D01*
X1080859Y0403657D01*
X1080900Y0403700D01*
X1080944Y0403739D01*
X1080990Y0403775D01*
X1081038Y0403809D01*
X1081089Y0403839D01*
X1081142Y0403865D01*
X1081196Y0403888D01*
X1081251Y0403907D01*
X1081308Y0403923D01*
X1081366Y0403935D01*
X1081424Y0403943D01*
X1081483Y0403947D01*
X1081541Y0403947D01*
X1081600Y0403943D01*
X1081658Y0403935D01*
X1081716Y0403923D01*
X1081773Y0403907D01*
X1081828Y0403888D01*
X1081882Y0403865D01*
X1081935Y0403839D01*
X1081986Y0403809D01*
X1082034Y0403775D01*
X1082080Y0403739D01*
X1082124Y0403700D01*
X1082165Y0403657D01*
X1082203Y0403612D01*
X1082238Y0403565D01*
X1082269Y0403515D01*
X1082297Y0403464D01*
X1082322Y0403411D01*
X1082343Y0403356D01*
X1082361Y0403299D01*
X1082374Y0403242D01*
X1082384Y0403184D01*
X1082390Y0403126D01*
X1082392Y0403067D01*
X1082390Y0403008D01*
X1082384Y0402950D01*
X1082374Y0402892D01*
X1082361Y0402835D01*
X1082343Y0402778D01*
X1082322Y0402723D01*
X1082297Y0402670D01*
X1082269Y0402619D01*
X1082238Y0402569D01*
X1082203Y0402522D01*
X1082165Y0402477D01*
X1082124Y0402434D01*
X1082080Y0402395D01*
X1082034Y0402359D01*
X1081986Y0402325D01*
X1081935Y0402295D01*
X1081882Y0402269D01*
X1081828Y0402246D01*
X1081773Y0402227D01*
X1081716Y0402211D01*
X1081658Y0402199D01*
X1081600Y0402191D01*
X1081541Y0402187D01*
X1081483Y0402187D01*
X1081424Y0402191D01*
X1081366Y0402199D01*
X1081308Y0402211D01*
X1081251Y0402227D01*
X1081196Y0402246D01*
X1081142Y0402269D01*
X1081089Y0402295D01*
X1081038Y0402325D01*
X1080990Y0402359D01*
X1080944Y0402395D01*
X1080900Y0402434D01*
X1080859Y0402477D01*
X1080821Y0402522D01*
X1080786Y0402569D01*
X1080755Y0402619D01*
X1080727Y0402670D01*
X1080702Y0402723D01*
X1080681Y0402778D01*
X1080663Y0402835D01*
X1080650Y0402892D01*
X1080640Y0402950D01*
X1080634Y0403008D01*
X1080632Y0403067D01*
X1080331Y0405035D02*
X1088205Y0405035D01*
X1094110Y0398736D02*
X1094110Y0391650D01*
X1088205Y0385350D02*
X1080331Y0385350D01*
X1271276Y0391650D02*
X1271276Y0398736D01*
X1277118Y0396693D02*
X1277118Y0393693D01*
X1280618Y0393693D01*
X1280618Y0396693D01*
X1277118Y0396693D01*
X1282118Y0395693D02*
X1283118Y0395693D01*
X1283118Y0394693D01*
X1282118Y0394693D01*
X1282118Y0395693D01*
X1277482Y0403067D02*
X1277484Y0403126D01*
X1277490Y0403184D01*
X1277500Y0403242D01*
X1277513Y0403299D01*
X1277531Y0403356D01*
X1277552Y0403411D01*
X1277577Y0403464D01*
X1277605Y0403515D01*
X1277636Y0403565D01*
X1277671Y0403612D01*
X1277709Y0403657D01*
X1277750Y0403700D01*
X1277794Y0403739D01*
X1277840Y0403775D01*
X1277888Y0403809D01*
X1277939Y0403839D01*
X1277992Y0403865D01*
X1278046Y0403888D01*
X1278101Y0403907D01*
X1278158Y0403923D01*
X1278216Y0403935D01*
X1278274Y0403943D01*
X1278333Y0403947D01*
X1278391Y0403947D01*
X1278450Y0403943D01*
X1278508Y0403935D01*
X1278566Y0403923D01*
X1278623Y0403907D01*
X1278678Y0403888D01*
X1278732Y0403865D01*
X1278785Y0403839D01*
X1278836Y0403809D01*
X1278884Y0403775D01*
X1278930Y0403739D01*
X1278974Y0403700D01*
X1279015Y0403657D01*
X1279053Y0403612D01*
X1279088Y0403565D01*
X1279119Y0403515D01*
X1279147Y0403464D01*
X1279172Y0403411D01*
X1279193Y0403356D01*
X1279211Y0403299D01*
X1279224Y0403242D01*
X1279234Y0403184D01*
X1279240Y0403126D01*
X1279242Y0403067D01*
X1279240Y0403008D01*
X1279234Y0402950D01*
X1279224Y0402892D01*
X1279211Y0402835D01*
X1279193Y0402778D01*
X1279172Y0402723D01*
X1279147Y0402670D01*
X1279119Y0402619D01*
X1279088Y0402569D01*
X1279053Y0402522D01*
X1279015Y0402477D01*
X1278974Y0402434D01*
X1278930Y0402395D01*
X1278884Y0402359D01*
X1278836Y0402325D01*
X1278785Y0402295D01*
X1278732Y0402269D01*
X1278678Y0402246D01*
X1278623Y0402227D01*
X1278566Y0402211D01*
X1278508Y0402199D01*
X1278450Y0402191D01*
X1278391Y0402187D01*
X1278333Y0402187D01*
X1278274Y0402191D01*
X1278216Y0402199D01*
X1278158Y0402211D01*
X1278101Y0402227D01*
X1278046Y0402246D01*
X1277992Y0402269D01*
X1277939Y0402295D01*
X1277888Y0402325D01*
X1277840Y0402359D01*
X1277794Y0402395D01*
X1277750Y0402434D01*
X1277709Y0402477D01*
X1277671Y0402522D01*
X1277636Y0402569D01*
X1277605Y0402619D01*
X1277577Y0402670D01*
X1277552Y0402723D01*
X1277531Y0402778D01*
X1277513Y0402835D01*
X1277500Y0402892D01*
X1277490Y0402950D01*
X1277484Y0403008D01*
X1277482Y0403067D01*
X1277181Y0405035D02*
X1285055Y0405035D01*
X1290961Y0398736D02*
X1290961Y0391650D01*
X1285055Y0385350D02*
X1277181Y0385350D01*
X1468126Y0391650D02*
X1468126Y0398736D01*
X1473969Y0396693D02*
X1473969Y0393693D01*
X1477469Y0393693D01*
X1477469Y0396693D01*
X1473969Y0396693D01*
X1478969Y0395693D02*
X1479969Y0395693D01*
X1479969Y0394693D01*
X1478969Y0394693D01*
X1478969Y0395693D01*
X1474333Y0403067D02*
X1474335Y0403126D01*
X1474341Y0403184D01*
X1474351Y0403242D01*
X1474364Y0403299D01*
X1474382Y0403356D01*
X1474403Y0403411D01*
X1474428Y0403464D01*
X1474456Y0403515D01*
X1474487Y0403565D01*
X1474522Y0403612D01*
X1474560Y0403657D01*
X1474601Y0403700D01*
X1474645Y0403739D01*
X1474691Y0403775D01*
X1474739Y0403809D01*
X1474790Y0403839D01*
X1474843Y0403865D01*
X1474897Y0403888D01*
X1474952Y0403907D01*
X1475009Y0403923D01*
X1475067Y0403935D01*
X1475125Y0403943D01*
X1475184Y0403947D01*
X1475242Y0403947D01*
X1475301Y0403943D01*
X1475359Y0403935D01*
X1475417Y0403923D01*
X1475474Y0403907D01*
X1475529Y0403888D01*
X1475583Y0403865D01*
X1475636Y0403839D01*
X1475687Y0403809D01*
X1475735Y0403775D01*
X1475781Y0403739D01*
X1475825Y0403700D01*
X1475866Y0403657D01*
X1475904Y0403612D01*
X1475939Y0403565D01*
X1475970Y0403515D01*
X1475998Y0403464D01*
X1476023Y0403411D01*
X1476044Y0403356D01*
X1476062Y0403299D01*
X1476075Y0403242D01*
X1476085Y0403184D01*
X1476091Y0403126D01*
X1476093Y0403067D01*
X1476091Y0403008D01*
X1476085Y0402950D01*
X1476075Y0402892D01*
X1476062Y0402835D01*
X1476044Y0402778D01*
X1476023Y0402723D01*
X1475998Y0402670D01*
X1475970Y0402619D01*
X1475939Y0402569D01*
X1475904Y0402522D01*
X1475866Y0402477D01*
X1475825Y0402434D01*
X1475781Y0402395D01*
X1475735Y0402359D01*
X1475687Y0402325D01*
X1475636Y0402295D01*
X1475583Y0402269D01*
X1475529Y0402246D01*
X1475474Y0402227D01*
X1475417Y0402211D01*
X1475359Y0402199D01*
X1475301Y0402191D01*
X1475242Y0402187D01*
X1475184Y0402187D01*
X1475125Y0402191D01*
X1475067Y0402199D01*
X1475009Y0402211D01*
X1474952Y0402227D01*
X1474897Y0402246D01*
X1474843Y0402269D01*
X1474790Y0402295D01*
X1474739Y0402325D01*
X1474691Y0402359D01*
X1474645Y0402395D01*
X1474601Y0402434D01*
X1474560Y0402477D01*
X1474522Y0402522D01*
X1474487Y0402569D01*
X1474456Y0402619D01*
X1474428Y0402670D01*
X1474403Y0402723D01*
X1474382Y0402778D01*
X1474364Y0402835D01*
X1474351Y0402892D01*
X1474341Y0402950D01*
X1474335Y0403008D01*
X1474333Y0403067D01*
X1474031Y0405035D02*
X1481906Y0405035D01*
X1487811Y0398736D02*
X1487811Y0391650D01*
X1481906Y0385350D02*
X1474031Y0385350D01*
X0503559Y0391650D02*
X0503559Y0398736D01*
X0497717Y0396693D02*
X0494217Y0396693D01*
X0494217Y0393693D01*
X0497717Y0393693D01*
X0497717Y0396693D01*
X0492717Y0395693D02*
X0491717Y0395693D01*
X0491717Y0394693D01*
X0492717Y0394693D01*
X0492717Y0395693D01*
X0495592Y0387319D02*
X0495594Y0387378D01*
X0495600Y0387436D01*
X0495610Y0387494D01*
X0495623Y0387551D01*
X0495641Y0387608D01*
X0495662Y0387663D01*
X0495687Y0387716D01*
X0495715Y0387767D01*
X0495746Y0387817D01*
X0495781Y0387864D01*
X0495819Y0387909D01*
X0495860Y0387952D01*
X0495904Y0387991D01*
X0495950Y0388027D01*
X0495998Y0388061D01*
X0496049Y0388091D01*
X0496102Y0388117D01*
X0496156Y0388140D01*
X0496211Y0388159D01*
X0496268Y0388175D01*
X0496326Y0388187D01*
X0496384Y0388195D01*
X0496443Y0388199D01*
X0496501Y0388199D01*
X0496560Y0388195D01*
X0496618Y0388187D01*
X0496676Y0388175D01*
X0496733Y0388159D01*
X0496788Y0388140D01*
X0496842Y0388117D01*
X0496895Y0388091D01*
X0496946Y0388061D01*
X0496994Y0388027D01*
X0497040Y0387991D01*
X0497084Y0387952D01*
X0497125Y0387909D01*
X0497163Y0387864D01*
X0497198Y0387817D01*
X0497229Y0387767D01*
X0497257Y0387716D01*
X0497282Y0387663D01*
X0497303Y0387608D01*
X0497321Y0387551D01*
X0497334Y0387494D01*
X0497344Y0387436D01*
X0497350Y0387378D01*
X0497352Y0387319D01*
X0497350Y0387260D01*
X0497344Y0387202D01*
X0497334Y0387144D01*
X0497321Y0387087D01*
X0497303Y0387030D01*
X0497282Y0386975D01*
X0497257Y0386922D01*
X0497229Y0386871D01*
X0497198Y0386821D01*
X0497163Y0386774D01*
X0497125Y0386729D01*
X0497084Y0386686D01*
X0497040Y0386647D01*
X0496994Y0386611D01*
X0496946Y0386577D01*
X0496895Y0386547D01*
X0496842Y0386521D01*
X0496788Y0386498D01*
X0496733Y0386479D01*
X0496676Y0386463D01*
X0496618Y0386451D01*
X0496560Y0386443D01*
X0496501Y0386439D01*
X0496443Y0386439D01*
X0496384Y0386443D01*
X0496326Y0386451D01*
X0496268Y0386463D01*
X0496211Y0386479D01*
X0496156Y0386498D01*
X0496102Y0386521D01*
X0496049Y0386547D01*
X0495998Y0386577D01*
X0495950Y0386611D01*
X0495904Y0386647D01*
X0495860Y0386686D01*
X0495819Y0386729D01*
X0495781Y0386774D01*
X0495746Y0386821D01*
X0495715Y0386871D01*
X0495687Y0386922D01*
X0495662Y0386975D01*
X0495641Y0387030D01*
X0495623Y0387087D01*
X0495610Y0387144D01*
X0495600Y0387202D01*
X0495594Y0387260D01*
X0495592Y0387319D01*
X0497654Y0385350D02*
X0489780Y0385350D01*
X0483874Y0391650D02*
X0483874Y0398736D01*
X0489780Y0405035D02*
X0497654Y0405035D01*
X0306709Y0398736D02*
X0306709Y0391650D01*
X0300866Y0393693D02*
X0297366Y0393693D01*
X0297366Y0396693D01*
X0300866Y0396693D01*
X0300866Y0393693D01*
X0295866Y0394693D02*
X0294866Y0394693D01*
X0294866Y0395693D01*
X0295866Y0395693D01*
X0295866Y0394693D01*
X0298742Y0387319D02*
X0298744Y0387378D01*
X0298750Y0387436D01*
X0298760Y0387494D01*
X0298773Y0387551D01*
X0298791Y0387608D01*
X0298812Y0387663D01*
X0298837Y0387716D01*
X0298865Y0387767D01*
X0298896Y0387817D01*
X0298931Y0387864D01*
X0298969Y0387909D01*
X0299010Y0387952D01*
X0299054Y0387991D01*
X0299100Y0388027D01*
X0299148Y0388061D01*
X0299199Y0388091D01*
X0299252Y0388117D01*
X0299306Y0388140D01*
X0299361Y0388159D01*
X0299418Y0388175D01*
X0299476Y0388187D01*
X0299534Y0388195D01*
X0299593Y0388199D01*
X0299651Y0388199D01*
X0299710Y0388195D01*
X0299768Y0388187D01*
X0299826Y0388175D01*
X0299883Y0388159D01*
X0299938Y0388140D01*
X0299992Y0388117D01*
X0300045Y0388091D01*
X0300096Y0388061D01*
X0300144Y0388027D01*
X0300190Y0387991D01*
X0300234Y0387952D01*
X0300275Y0387909D01*
X0300313Y0387864D01*
X0300348Y0387817D01*
X0300379Y0387767D01*
X0300407Y0387716D01*
X0300432Y0387663D01*
X0300453Y0387608D01*
X0300471Y0387551D01*
X0300484Y0387494D01*
X0300494Y0387436D01*
X0300500Y0387378D01*
X0300502Y0387319D01*
X0300500Y0387260D01*
X0300494Y0387202D01*
X0300484Y0387144D01*
X0300471Y0387087D01*
X0300453Y0387030D01*
X0300432Y0386975D01*
X0300407Y0386922D01*
X0300379Y0386871D01*
X0300348Y0386821D01*
X0300313Y0386774D01*
X0300275Y0386729D01*
X0300234Y0386686D01*
X0300190Y0386647D01*
X0300144Y0386611D01*
X0300096Y0386577D01*
X0300045Y0386547D01*
X0299992Y0386521D01*
X0299938Y0386498D01*
X0299883Y0386479D01*
X0299826Y0386463D01*
X0299768Y0386451D01*
X0299710Y0386443D01*
X0299651Y0386439D01*
X0299593Y0386439D01*
X0299534Y0386443D01*
X0299476Y0386451D01*
X0299418Y0386463D01*
X0299361Y0386479D01*
X0299306Y0386498D01*
X0299252Y0386521D01*
X0299199Y0386547D01*
X0299148Y0386577D01*
X0299100Y0386611D01*
X0299054Y0386647D01*
X0299010Y0386686D01*
X0298969Y0386729D01*
X0298931Y0386774D01*
X0298896Y0386821D01*
X0298865Y0386871D01*
X0298837Y0386922D01*
X0298812Y0386975D01*
X0298791Y0387030D01*
X0298773Y0387087D01*
X0298760Y0387144D01*
X0298750Y0387202D01*
X0298744Y0387260D01*
X0298742Y0387319D01*
X0300803Y0385350D02*
X0292929Y0385350D01*
X0287024Y0391650D02*
X0287024Y0398736D01*
X0292929Y0405035D02*
X0300803Y0405035D01*
X0109858Y0398736D02*
X0109858Y0391650D01*
X0104016Y0393693D02*
X0104016Y0396693D01*
X0100516Y0396693D01*
X0100516Y0393693D01*
X0104016Y0393693D01*
X0099016Y0394693D02*
X0098016Y0394693D01*
X0098016Y0395693D01*
X0099016Y0395693D01*
X0099016Y0394693D01*
X0101892Y0387319D02*
X0101894Y0387378D01*
X0101900Y0387436D01*
X0101910Y0387494D01*
X0101923Y0387551D01*
X0101941Y0387608D01*
X0101962Y0387663D01*
X0101987Y0387716D01*
X0102015Y0387767D01*
X0102046Y0387817D01*
X0102081Y0387864D01*
X0102119Y0387909D01*
X0102160Y0387952D01*
X0102204Y0387991D01*
X0102250Y0388027D01*
X0102298Y0388061D01*
X0102349Y0388091D01*
X0102402Y0388117D01*
X0102456Y0388140D01*
X0102511Y0388159D01*
X0102568Y0388175D01*
X0102626Y0388187D01*
X0102684Y0388195D01*
X0102743Y0388199D01*
X0102801Y0388199D01*
X0102860Y0388195D01*
X0102918Y0388187D01*
X0102976Y0388175D01*
X0103033Y0388159D01*
X0103088Y0388140D01*
X0103142Y0388117D01*
X0103195Y0388091D01*
X0103246Y0388061D01*
X0103294Y0388027D01*
X0103340Y0387991D01*
X0103384Y0387952D01*
X0103425Y0387909D01*
X0103463Y0387864D01*
X0103498Y0387817D01*
X0103529Y0387767D01*
X0103557Y0387716D01*
X0103582Y0387663D01*
X0103603Y0387608D01*
X0103621Y0387551D01*
X0103634Y0387494D01*
X0103644Y0387436D01*
X0103650Y0387378D01*
X0103652Y0387319D01*
X0103650Y0387260D01*
X0103644Y0387202D01*
X0103634Y0387144D01*
X0103621Y0387087D01*
X0103603Y0387030D01*
X0103582Y0386975D01*
X0103557Y0386922D01*
X0103529Y0386871D01*
X0103498Y0386821D01*
X0103463Y0386774D01*
X0103425Y0386729D01*
X0103384Y0386686D01*
X0103340Y0386647D01*
X0103294Y0386611D01*
X0103246Y0386577D01*
X0103195Y0386547D01*
X0103142Y0386521D01*
X0103088Y0386498D01*
X0103033Y0386479D01*
X0102976Y0386463D01*
X0102918Y0386451D01*
X0102860Y0386443D01*
X0102801Y0386439D01*
X0102743Y0386439D01*
X0102684Y0386443D01*
X0102626Y0386451D01*
X0102568Y0386463D01*
X0102511Y0386479D01*
X0102456Y0386498D01*
X0102402Y0386521D01*
X0102349Y0386547D01*
X0102298Y0386577D01*
X0102250Y0386611D01*
X0102204Y0386647D01*
X0102160Y0386686D01*
X0102119Y0386729D01*
X0102081Y0386774D01*
X0102046Y0386821D01*
X0102015Y0386871D01*
X0101987Y0386922D01*
X0101962Y0386975D01*
X0101941Y0387030D01*
X0101923Y0387087D01*
X0101910Y0387144D01*
X0101900Y0387202D01*
X0101894Y0387260D01*
X0101892Y0387319D01*
X0103953Y0385350D02*
X0096079Y0385350D01*
X0090173Y0391650D02*
X0090173Y0398736D01*
X0096079Y0405035D02*
X0103953Y0405035D01*
D17*
X0082646Y0429193D02*
X0038646Y0429193D01*
X0038646Y0361193D01*
X0082646Y0361193D01*
X0082646Y0429193D01*
D18*
X0066217Y0422497D02*
X0063148Y0422497D01*
X0064682Y0422497D02*
X0064682Y0417893D01*
X0061613Y0418660D02*
X0061613Y0422497D01*
X0058544Y0422497D02*
X0058544Y0418660D01*
X0059311Y0417893D01*
X0060846Y0417893D01*
X0061613Y0418660D01*
X0057009Y0418660D02*
X0057009Y0421730D01*
X0056242Y0422497D01*
X0054707Y0422497D01*
X0053940Y0421730D01*
X0053940Y0418660D01*
X0054707Y0417893D01*
X0056242Y0417893D01*
X0057009Y0418660D01*
X0057009Y0372497D02*
X0058544Y0372497D01*
X0057776Y0372497D02*
X0057776Y0367893D01*
X0057009Y0367893D02*
X0058544Y0367893D01*
X0060078Y0367893D02*
X0060078Y0372497D01*
X0063148Y0367893D01*
X0063148Y0372497D01*
D19*
X0068646Y0365193D02*
X0072646Y0365193D01*
X0070646Y0363193D02*
X0070646Y0367193D01*
X0052646Y0365193D02*
X0048646Y0365193D01*
X0048646Y0425193D02*
X0052646Y0425193D01*
X0068646Y0425193D02*
X0072646Y0425193D01*
X0070646Y0423193D02*
X0070646Y0427193D01*
M02*
